<?xml version="1.0" standalone="no"?><svg xmlns="http://www.w3.org/2000/svg" viewBox="0 0 1440 320"><path fill="#00cba9" fill-opacity="1" d="M0,32L17.1,48C34.3,64,69,96,103,101.3C137.1,107,171,85,206,69.3C240,53,274,43,309,32C342.9,21,377,11,411,10.7C445.7,11,480,21,514,48C548.6,75,583,117,617,117.3C651.4,117,686,75,720,64C754.3,53,789,75,823,85.3C857.1,96,891,96,926,101.3C960,107,994,117,1029,117.3C1062.9,117,1097,107,1131,101.3C1165.7,96,1200,96,1234,80C1268.6,64,1303,32,1337,42.7C1371.4,53,1406,107,1423,133.3L1440,160L1440,320L1422.9,320C1405.7,320,1371,320,1337,320C1302.9,320,1269,320,1234,320C1200,320,1166,320,1131,320C1097.1,320,1063,320,1029,320C994.3,320,960,320,926,320C891.4,320,857,320,823,320C788.6,320,754,320,720,320C685.7,320,651,320,617,320C582.9,320,549,320,514,320C480,320,446,320,411,320C377.1,320,343,320,309,320C274.3,320,240,320,206,320C171.4,320,137,320,103,320C68.6,320,34,320,17,320L0,320Z"></path></svg>